<?xml version="1.0" standalone="no"?>
<!DOCTYPE svg PUBLIC "-//W3C//DTD SVG 20010904//EN"
 "http://www.w3.org/TR/2001/REC-SVG-20010904/DTD/svg10.dtd">
<svg version="1.0" xmlns="http://www.w3.org/2000/svg"
 width="512.000000pt" height="512.000000pt" viewBox="0 0 512.000000 512.000000"
 preserveAspectRatio="xMidYMid meet">
<metadata>
Created by potrace 1.11, written by Peter Selinger 2001-2013
</metadata>
<g transform="translate(0.000000,512.000000) scale(0.100000,-0.100000)"
fill="#000000" stroke="none">
<path d="M2379 5116 c-2 -2 -35 -6 -74 -10 -38 -3 -97 -10 -130 -16 -33 -6
-76 -13 -95 -16 -106 -17 -413 -105 -434 -125 -6 -5 -16 -9 -23 -9 -8 0 -42
-13 -76 -29 -34 -16 -82 -38 -107 -49 -79 -36 -237 -128 -336 -197 -331 -231
-601 -532 -793 -883 -33 -62 -61 -115 -61 -117 0 -2 -15 -36 -34 -77 -54 -119
-134 -356 -150 -448 -2 -14 -7 -36 -10 -50 -44 -190 -65 -557 -44 -780 34
-353 155 -726 337 -1040 43 -74 159 -246 183 -272 7 -7 29 -34 48 -58 142
-185 404 -415 633 -556 278 -172 645 -310 936 -350 20 -3 79 -11 131 -18 91
-12 508 -15 555 -3 11 3 43 8 70 11 28 4 86 14 130 22 44 8 91 17 105 20 80
15 340 100 430 140 575 260 1001 662 1274 1200 125 248 219 543 251 794 15
120 20 195 20 355 0 217 -11 339 -44 500 -6 28 -13 61 -15 75 -11 56 -50 190
-78 270 -189 533 -523 966 -990 1284 -54 36 -101 66 -105 66 -3 0 -14 6 -22
14 -20 18 -257 137 -331 166 -159 64 -360 122 -515 149 -57 10 -76 13 -170 27
-43 6 -461 15 -466 10z m293 -771 c44 -9 56 -45 54 -165 -2 -115 -12 -146 -51
-156 -23 -6 -25 -11 -25 -59 0 -52 1 -54 33 -60 295 -59 526 -285 593 -581 13
-59 13 -220 -1 -289 -35 -177 -139 -345 -278 -452 l-27 -21 54 -114 c29 -62
69 -147 88 -188 20 -41 47 -100 62 -130 l26 -56 81 0 c74 -1 83 -3 107 -28 23
-22 27 -35 26 -78 0 -43 -5 -55 -28 -75 -15 -13 -40 -23 -57 -23 -16 0 -29 -2
-29 -4 0 -5 39 -92 88 -196 22 -47 58 -125 82 -175 23 -49 60 -128 83 -175 23
-47 42 -101 43 -120 4 -96 -98 -155 -189 -109 -39 21 -66 69 -227 419 -32 69
-83 178 -113 243 l-56 117 -178 0 -178 0 -17 -30 c-38 -67 -150 -66 -180 2
l-13 28 -175 0 -175 0 -48 -102 c-27 -57 -68 -145 -93 -197 -24 -51 -44 -95
-44 -97 0 -2 -29 -64 -65 -139 -36 -75 -65 -141 -65 -146 0 -19 -30 -69 -60
-99 -52 -53 -112 -64 -167 -30 -63 38 -79 106 -41 175 12 22 83 173 159 335
l139 295 -37 3 c-49 4 -81 28 -91 66 -11 42 2 97 29 118 22 18 30 20 135 21
l61 0 24 51 c13 28 49 106 81 173 31 67 71 152 87 188 l30 65 -97 98 c-81 80
-105 112 -139 182 -81 165 -102 290 -79 462 28 206 179 422 369 528 72 40 196
85 229 82 23 -1 35 24 34 70 -1 30 -7 41 -36 60 -33 22 -35 28 -40 88 -6 83 2
179 17 205 10 17 25 21 120 25 112 5 120 5 165 -5z m-1197 -3283 c27 -32 106
-62 164 -62 l36 0 -50 -48 c-28 -26 -86 -78 -129 -117 l-78 -69 6 44 c4 38 18
226 19 268 0 18 6 15 32 -16z m2203 6 c-1 -25 10 -177 18 -245 2 -24 1 -43 -3
-43 -4 1 -33 23 -63 50 -30 28 -83 74 -117 103 -34 28 -62 55 -62 60 -1 4 15
7 34 7 48 0 137 35 165 65 29 31 30 31 28 3z"/>
<path d="M2650 3633 c-1 -72 -31 -100 -108 -101 -62 -1 -93 29 -95 91 -2 48
-2 48 -31 43 -48 -10 -148 -64 -199 -107 -56 -49 -115 -133 -145 -209 -73
-183 -30 -404 105 -545 l47 -49 18 41 c47 109 174 130 233 39 24 -36 25 -77 5
-134 -11 -30 -15 -54 -9 -58 13 -8 155 -7 168 0 7 5 7 12 0 24 -5 9 -18 41
-28 71 -22 64 -13 105 31 148 25 24 38 28 83 28 66 0 95 -24 133 -109 l27 -58
51 51 c144 144 188 376 107 566 -23 53 -84 144 -119 176 -67 60 -164 113 -246
133 -28 6 -28 6 -28 -41z"/>
<path d="M2685 2445 c-54 -13 -214 -13 -280 -1 l-40 8 -84 -184 c-47 -100 -86
-185 -87 -188 -1 -3 54 -6 122 -5 115 0 126 2 136 20 19 36 51 55 94 55 44 0
88 -26 98 -58 6 -16 20 -18 136 -18 72 0 130 3 130 7 0 6 -170 373 -173 375
-1 0 -25 -5 -52 -11z"/>
</g>
</svg>
